<?xml version="1.0" encoding="utf-8"?>
<!-- Generator: Adobe Illustrator 16.0.0, SVG Export Plug-In . SVG Version: 6.00 Build 0)  -->
<!DOCTYPE svg PUBLIC "-//W3C//DTD SVG 1.1//EN" "http://www.w3.org/Graphics/SVG/1.1/DTD/svg11.dtd">
<svg version="1.1" id="Layer_1" xmlns="http://www.w3.org/2000/svg" xmlns:xlink="http://www.w3.org/1999/xlink" x="0px" y="0px"
	 width="67.925px" height="32.336px" viewBox="0 0 67.925 32.336" enable-background="new 0 0 67.925 32.336" xml:space="preserve">
<g>
	<path d="M0,0.372h3.588c1.112,0,1.946,0.15,2.502,0.45c0.556,0.3,0.834,0.806,0.834,1.518c0,1.096-0.66,1.752-1.98,1.968v0.024
		c1.6,0.2,2.4,0.896,2.4,2.088c0,0.872-0.328,1.482-0.984,1.83c-0.656,0.348-1.6,0.522-2.832,0.522H0V8.544h0.78V0.6H0V0.372z
		 M3.12,0.6v3.696h0.312c0.416,0,0.706-0.126,0.87-0.378C4.466,3.666,4.548,3.28,4.548,2.76V2.196c0-0.592-0.072-1.006-0.216-1.242
		S3.912,0.6,3.504,0.6H3.12z M3.12,4.524v4.02h0.564c0.44,0,0.748-0.152,0.924-0.456c0.176-0.304,0.264-0.752,0.264-1.344V6.108
		c0-0.528-0.108-0.924-0.324-1.188c-0.216-0.264-0.6-0.396-1.152-0.396H3.12z"/>
	<path d="M8.61,8.094c-0.516-0.532-0.774-1.272-0.774-2.22c0-0.948,0.29-1.674,0.87-2.178c0.58-0.504,1.318-0.756,2.214-0.756
		c1.816,0,2.688,0.912,2.616,2.736h-3.384v0.468c0,0.784,0.1,1.376,0.3,1.776c0.2,0.4,0.548,0.6,1.044,0.6
		c0.928,0,1.536-0.496,1.824-1.488l0.216,0.036c-0.152,0.576-0.426,1.024-0.822,1.344s-0.99,0.48-1.782,0.48
		C9.9,8.892,9.126,8.626,8.61,8.094z M10.164,5.436H11.4V4.848c0-0.648-0.038-1.09-0.114-1.326s-0.228-0.354-0.456-0.354
		s-0.396,0.126-0.504,0.378s-0.162,0.686-0.162,1.302V5.436z"/>
	<path d="M14.802,8.094c-0.516-0.532-0.774-1.272-0.774-2.22c0-0.948,0.29-1.674,0.87-2.178c0.58-0.504,1.318-0.756,2.214-0.756
		c1.816,0,2.688,0.912,2.616,2.736h-3.384v0.468c0,0.784,0.1,1.376,0.3,1.776c0.2,0.4,0.548,0.6,1.044,0.6
		c0.928,0,1.536-0.496,1.824-1.488l0.216,0.036c-0.152,0.576-0.426,1.024-0.822,1.344s-0.99,0.48-1.782,0.48
		C16.092,8.892,15.318,8.626,14.802,8.094z M16.355,5.436h1.236V4.848c0-0.648-0.038-1.09-0.114-1.326s-0.228-0.354-0.456-0.354
		s-0.396,0.126-0.504,0.378s-0.162,0.686-0.162,1.302V5.436z"/>
	<path d="M24.168,3.396c-0.296,0-0.556,0.192-0.78,0.576c-0.224,0.384-0.336,0.84-0.336,1.368v3.216h0.852v0.216H20.16V8.556h0.66
		v-5.28h-0.66V3.06h2.892v1.152c0.104-0.408,0.304-0.722,0.6-0.942s0.632-0.33,1.008-0.33c0.376,0,0.682,0.106,0.918,0.318
		c0.236,0.212,0.354,0.512,0.354,0.9c0,0.388-0.088,0.686-0.264,0.894c-0.176,0.208-0.446,0.312-0.81,0.312
		c-0.364,0-0.632-0.12-0.804-0.36c-0.172-0.24-0.194-0.572-0.066-0.996h0.432C24.62,3.6,24.536,3.396,24.168,3.396z"/>
	<path d="M26.052,10.644l-0.144-0.18c0.496-0.424,0.82-0.754,0.972-0.99c0.152-0.236,0.228-0.496,0.228-0.78
		c0-0.284-0.124-0.442-0.372-0.474L26.16,8.736c-0.184-0.064-0.35-0.178-0.498-0.342C25.514,8.23,25.44,8.018,25.44,7.758
		c0-0.26,0.094-0.482,0.282-0.666c0.188-0.184,0.448-0.276,0.78-0.276s0.602,0.128,0.81,0.384c0.208,0.256,0.312,0.596,0.312,1.02
		c0,0.424-0.124,0.832-0.372,1.224S26.604,10.236,26.052,10.644z"/>
	<path d="M35.412,6.348l0.996-3.456L35.688,0.6h-0.684V0.372h3.72V0.6h-0.708l1.788,5.676l1.44-5.676h-1.212V0.372h2.4V0.6H41.64
		l-2.208,8.292h-1.068l-1.776-5.424l-1.56,5.424h-1.044L30.96,0.6h-0.564V0.372h3.9V0.6h-0.84L35.412,6.348z"/>
	<path d="M42.396,3.06h2.94v5.496h0.672v0.216h-3.564V8.556h0.66v-5.28h-0.708V3.06z M44.208,2.232
		c-0.424,0-0.726-0.108-0.906-0.324c-0.18-0.216-0.27-0.484-0.27-0.804s0.098-0.584,0.294-0.792C43.521,0.104,43.82,0,44.22,0
		s0.704,0.094,0.912,0.282c0.208,0.188,0.312,0.456,0.312,0.804s-0.1,0.626-0.3,0.834C44.944,2.128,44.632,2.232,44.208,2.232z"/>
	<path d="M46.271,3.06h2.892v1.104c0.128-0.368,0.324-0.664,0.588-0.888c0.264-0.224,0.664-0.336,1.2-0.336
		c1.24,0,1.86,0.668,1.86,2.004v3.612h0.672v0.216h-3.396V8.556h0.492v-3.9c0-0.48-0.032-0.79-0.096-0.93s-0.18-0.21-0.348-0.21
		c-0.256,0-0.482,0.168-0.678,0.504c-0.196,0.336-0.294,0.744-0.294,1.224v3.312h0.516v0.216h-3.408V8.556h0.66v-5.28h-0.66V3.06z"
		/>
	<path d="M58.452,2.436l0.336-0.204C58.835,1.984,58.74,1.86,58.5,1.86c-0.344,0-0.516,0.264-0.516,0.792
		c0,0.208,0.028,0.448,0.084,0.72c0.608,0.408,0.912,0.93,0.912,1.566c0,0.636-0.22,1.13-0.66,1.482s-1.036,0.528-1.788,0.528
		c-0.312,0-0.636-0.032-0.972-0.096c-0.352,0.224-0.528,0.392-0.528,0.504c0,0.112,0.256,0.168,0.768,0.168h1.224
		c1.816,0,2.724,0.652,2.724,1.956c0,0.704-0.274,1.262-0.822,1.674c-0.548,0.412-1.402,0.618-2.562,0.618
		c-1.976,0-2.964-0.428-2.964-1.284c0-0.464,0.308-0.784,0.924-0.96l0.72,0.324c-0.064,0.232-0.096,0.452-0.096,0.66
		c0,0.688,0.512,1.032,1.536,1.032c0.624,0,1.104-0.116,1.44-0.348c0.336-0.232,0.504-0.52,0.504-0.864
		c0-0.344-0.102-0.574-0.306-0.69c-0.204-0.116-0.61-0.174-1.218-0.174H55.74c-0.648,0-1.112-0.108-1.392-0.324
		c-0.28-0.216-0.42-0.482-0.42-0.798s0.1-0.58,0.3-0.792c0.2-0.212,0.556-0.474,1.068-0.786c-0.928-0.264-1.392-0.872-1.392-1.824
		c0-0.6,0.216-1.084,0.648-1.452c0.432-0.368,1.08-0.552,1.944-0.552c0.52,0,0.964,0.1,1.332,0.3
		c-0.048-0.216-0.072-0.412-0.072-0.588c0-0.448,0.12-0.772,0.36-0.972c0.24-0.2,0.508-0.3,0.804-0.3s0.534,0.078,0.714,0.234
		c0.18,0.156,0.27,0.37,0.27,0.642s-0.072,0.474-0.216,0.606C59.543,2.994,59.37,3.06,59.166,3.06s-0.372-0.054-0.504-0.162
		C58.529,2.79,58.459,2.636,58.452,2.436z M55.908,4.68v0.648c0,0.536,0.046,0.9,0.138,1.092s0.232,0.288,0.42,0.288
		s0.324-0.094,0.408-0.282C56.958,6.238,57,5.852,57,5.268V4.68c0-0.624-0.04-1.034-0.12-1.23c-0.08-0.196-0.214-0.294-0.402-0.294
		s-0.33,0.102-0.426,0.306C55.956,3.666,55.908,4.072,55.908,4.68z"/>
	<path d="M60.06,8.892V6.744h0.144c0.208,0.696,0.488,1.184,0.84,1.464c0.352,0.28,0.792,0.42,1.32,0.42
		c0.816,0,1.224-0.26,1.224-0.78c0-0.224-0.1-0.392-0.3-0.504c-0.312-0.176-0.712-0.312-1.2-0.408c-0.544-0.144-1-0.336-1.368-0.576
		c-0.44-0.288-0.66-0.744-0.66-1.368s0.192-1.122,0.576-1.494c0.384-0.372,0.896-0.558,1.536-0.558c0.392,0,0.796,0.092,1.212,0.276
		c0.152,0.064,0.268,0.096,0.348,0.096s0.148-0.028,0.204-0.084c0.056-0.056,0.124-0.16,0.204-0.312h0.132v1.836h-0.144
		c-0.408-1.04-1.04-1.56-1.896-1.56c-0.376,0-0.656,0.066-0.84,0.198c-0.184,0.132-0.276,0.298-0.276,0.498
		c0,0.12,0.028,0.214,0.084,0.282c0.056,0.068,0.1,0.118,0.132,0.15c0.032,0.032,0.084,0.066,0.156,0.102
		c0.072,0.036,0.132,0.064,0.18,0.084c0.048,0.02,0.122,0.046,0.222,0.078c0.1,0.032,0.174,0.052,0.222,0.06
		c0.543,0.136,0.936,0.254,1.176,0.354c0.24,0.1,0.468,0.222,0.684,0.366c0.44,0.304,0.66,0.794,0.66,1.47
		c0,0.676-0.2,1.188-0.6,1.536c-0.4,0.348-0.948,0.522-1.644,0.522c-0.496,0-0.976-0.116-1.44-0.348
		c-0.096-0.064-0.172-0.096-0.228-0.096c-0.176,0-0.348,0.148-0.516,0.444H60.06z"/>
	<path d="M65.903,10.644l-0.144-0.18c0.496-0.424,0.82-0.754,0.972-0.99c0.152-0.236,0.228-0.496,0.228-0.78
		c0-0.284-0.124-0.442-0.372-0.474l-0.576,0.516c-0.184-0.064-0.35-0.178-0.498-0.342c-0.148-0.164-0.222-0.376-0.222-0.636
		c0-0.26,0.094-0.482,0.282-0.666c0.188-0.184,0.448-0.276,0.78-0.276s0.602,0.128,0.81,0.384c0.208,0.256,0.312,0.596,0.312,1.02
		c0,0.424-0.124,0.832-0.372,1.224S66.455,10.236,65.903,10.644z"/>
</g>
<g>
	<path d="M14.676,12.836h2.94c1.007,0,1.757,0.145,2.25,0.435c0.494,0.29,0.74,0.809,0.74,1.555c0,0.827-0.3,1.396-0.9,1.71
		c-0.56,0.287-1.344,0.43-2.35,0.43h-0.08v2.68h1.25v0.19h-3.85v-0.19h0.65v-6.62h-0.65V12.836z M17.276,13.026v3.75h0.21
		c0.4,0,0.677-0.137,0.83-0.41c0.153-0.273,0.23-0.716,0.23-1.33v-0.48c0-0.567-0.072-0.963-0.215-1.19
		c-0.144-0.227-0.405-0.34-0.785-0.34H17.276z"/>
	<path d="M23.946,15.356c-0.247,0-0.463,0.16-0.65,0.48s-0.28,0.7-0.28,1.14v2.68h0.71v0.18h-3.12v-0.18h0.55v-4.4h-0.55v-0.18h2.41
		v0.96c0.087-0.34,0.253-0.602,0.5-0.785c0.247-0.183,0.527-0.275,0.84-0.275c0.313,0,0.568,0.088,0.765,0.265
		c0.196,0.177,0.295,0.427,0.295,0.75c0,0.324-0.074,0.572-0.22,0.745s-0.372,0.26-0.675,0.26c-0.304,0-0.527-0.1-0.67-0.3
		c-0.144-0.2-0.162-0.477-0.055-0.83h0.36C24.322,15.526,24.252,15.356,23.946,15.356z"/>
	<path d="M25.866,19.296c-0.427-0.427-0.64-1.038-0.64-1.835c0-0.796,0.228-1.41,0.685-1.84c0.457-0.43,1.098-0.645,1.925-0.645
		s1.443,0.198,1.85,0.595c0.406,0.397,0.61,1.002,0.61,1.815c0,1.7-0.847,2.55-2.54,2.55C26.922,19.936,26.292,19.723,25.866,19.296
		z M28.376,17.866v-0.85c0-0.647-0.035-1.119-0.105-1.415c-0.07-0.297-0.232-0.445-0.485-0.445c-0.147,0-0.265,0.042-0.355,0.125
		c-0.09,0.083-0.155,0.222-0.195,0.415c-0.06,0.3-0.09,0.757-0.09,1.37v0.78c0,0.727,0.021,1.164,0.065,1.31
		c0.043,0.147,0.088,0.267,0.135,0.36c0.073,0.16,0.217,0.24,0.43,0.24c0.26,0,0.43-0.15,0.51-0.45
		C28.346,19.093,28.376,18.613,28.376,17.866z"/>
	<path d="M33.246,12.276c-0.253,0-0.42,0.095-0.5,0.285s-0.12,0.495-0.12,0.915v1.6h1.32v0.18h-1.32v4.4h1.22v0.18h-3.63v-0.18h0.55
		v-4.4h-0.58v-0.18h0.58v-0.04c0-0.96,0.184-1.688,0.55-2.185c0.366-0.497,0.98-0.745,1.84-0.745c0.566,0,0.973,0.112,1.22,0.335
		c0.247,0.224,0.37,0.482,0.37,0.775c0,0.293-0.077,0.514-0.23,0.66s-0.356,0.22-0.61,0.22s-0.448-0.065-0.585-0.195
		s-0.205-0.28-0.205-0.45c0-0.17,0.02-0.335,0.06-0.495h0.38C33.689,12.502,33.586,12.276,33.246,12.276z"/>
	<path d="M34.181,19.271c-0.43-0.443-0.645-1.06-0.645-1.85s0.242-1.395,0.725-1.815s1.098-0.63,1.845-0.63
		c1.513,0,2.24,0.76,2.18,2.28h-2.82v0.39c0,0.653,0.083,1.146,0.25,1.48c0.167,0.333,0.457,0.5,0.87,0.5
		c0.773,0,1.28-0.413,1.52-1.24l0.18,0.03c-0.126,0.48-0.355,0.854-0.685,1.12s-0.825,0.4-1.485,0.4
		C35.256,19.936,34.611,19.714,34.181,19.271z M35.476,17.056h1.03v-0.49c0-0.54-0.032-0.908-0.095-1.105s-0.19-0.295-0.38-0.295
		s-0.33,0.105-0.42,0.315c-0.09,0.21-0.135,0.572-0.135,1.085V17.056z"/>
	<path d="M38.416,19.936v-1.79h0.12c0.173,0.58,0.406,0.987,0.7,1.22c0.293,0.234,0.66,0.35,1.1,0.35c0.68,0,1.02-0.216,1.02-0.65
		c0-0.187-0.083-0.327-0.25-0.42c-0.26-0.146-0.593-0.26-1-0.34c-0.454-0.12-0.833-0.28-1.14-0.48c-0.367-0.24-0.55-0.62-0.55-1.14
		s0.16-0.935,0.48-1.245s0.747-0.465,1.28-0.465c0.327,0,0.664,0.077,1.01,0.23c0.126,0.053,0.223,0.08,0.29,0.08
		c0.066,0,0.123-0.023,0.17-0.07c0.046-0.046,0.103-0.133,0.17-0.26h0.11v1.53h-0.12c-0.34-0.867-0.867-1.3-1.58-1.3
		c-0.313,0-0.547,0.055-0.7,0.165c-0.153,0.11-0.23,0.249-0.23,0.415c0,0.1,0.023,0.178,0.07,0.235
		c0.047,0.057,0.083,0.099,0.11,0.125c0.026,0.027,0.07,0.055,0.13,0.085s0.11,0.053,0.15,0.07c0.04,0.017,0.102,0.039,0.185,0.065
		c0.083,0.027,0.145,0.043,0.185,0.05c0.453,0.113,0.78,0.211,0.98,0.295s0.39,0.185,0.57,0.305c0.367,0.253,0.55,0.662,0.55,1.225
		c0,0.563-0.167,0.99-0.5,1.28c-0.333,0.29-0.79,0.435-1.37,0.435c-0.414,0-0.813-0.097-1.2-0.29c-0.08-0.053-0.143-0.08-0.19-0.08
		c-0.146,0-0.29,0.124-0.43,0.37H38.416z"/>
	<path d="M42.396,19.936v-1.79h0.12c0.173,0.58,0.406,0.987,0.7,1.22c0.293,0.234,0.66,0.35,1.1,0.35c0.68,0,1.02-0.216,1.02-0.65
		c0-0.187-0.083-0.327-0.25-0.42c-0.26-0.146-0.593-0.26-1-0.34c-0.454-0.12-0.833-0.28-1.14-0.48c-0.367-0.24-0.55-0.62-0.55-1.14
		s0.16-0.935,0.48-1.245s0.747-0.465,1.28-0.465c0.327,0,0.664,0.077,1.01,0.23c0.126,0.053,0.223,0.08,0.29,0.08
		c0.066,0,0.123-0.023,0.17-0.07c0.046-0.046,0.103-0.133,0.17-0.26h0.11v1.53h-0.12c-0.34-0.867-0.867-1.3-1.58-1.3
		c-0.313,0-0.547,0.055-0.7,0.165c-0.153,0.11-0.23,0.249-0.23,0.415c0,0.1,0.023,0.178,0.07,0.235
		c0.047,0.057,0.083,0.099,0.11,0.125c0.026,0.027,0.07,0.055,0.13,0.085s0.11,0.053,0.15,0.07c0.04,0.017,0.102,0.039,0.185,0.065
		c0.083,0.027,0.145,0.043,0.185,0.05c0.453,0.113,0.78,0.211,0.98,0.295s0.39,0.185,0.57,0.305c0.367,0.253,0.55,0.662,0.55,1.225
		c0,0.563-0.167,0.99-0.5,1.28c-0.333,0.29-0.79,0.435-1.37,0.435c-0.414,0-0.813-0.097-1.2-0.29c-0.08-0.053-0.143-0.08-0.19-0.08
		c-0.146,0-0.29,0.124-0.43,0.37H42.396z"/>
	<path d="M46.105,15.076h2.45v4.58h0.56v0.18h-2.97v-0.18h0.55v-4.4h-0.59V15.076z M47.615,14.386c-0.353,0-0.605-0.09-0.755-0.27
		c-0.15-0.18-0.225-0.403-0.225-0.67c0-0.267,0.082-0.486,0.245-0.66c0.163-0.173,0.412-0.26,0.745-0.26
		c0.333,0,0.586,0.079,0.76,0.235c0.173,0.157,0.26,0.38,0.26,0.67c0,0.29-0.083,0.521-0.25,0.695
		C48.229,14.299,47.969,14.386,47.615,14.386z"/>
	<path d="M49.675,19.296c-0.427-0.427-0.64-1.038-0.64-1.835c0-0.796,0.228-1.41,0.685-1.84c0.457-0.43,1.098-0.645,1.925-0.645
		s1.443,0.198,1.85,0.595c0.406,0.397,0.61,1.002,0.61,1.815c0,1.7-0.847,2.55-2.54,2.55C50.732,19.936,50.102,19.723,49.675,19.296
		z M52.186,17.866v-0.85c0-0.647-0.035-1.119-0.105-1.415c-0.07-0.297-0.232-0.445-0.485-0.445c-0.147,0-0.265,0.042-0.355,0.125
		c-0.09,0.083-0.155,0.222-0.195,0.415c-0.06,0.3-0.09,0.757-0.09,1.37v0.78c0,0.727,0.021,1.164,0.065,1.31
		c0.043,0.147,0.088,0.267,0.135,0.36c0.073,0.16,0.217,0.24,0.43,0.24c0.26,0,0.43-0.15,0.51-0.45
		C52.155,19.093,52.186,18.613,52.186,17.866z"/>
	<path d="M54.045,15.076h2.41v0.92c0.107-0.307,0.27-0.553,0.49-0.74c0.22-0.187,0.553-0.28,1-0.28c1.033,0,1.55,0.557,1.55,1.67
		v3.01h0.56v0.18h-2.83v-0.18h0.41v-3.25c0-0.4-0.027-0.658-0.08-0.775s-0.15-0.175-0.29-0.175c-0.213,0-0.401,0.14-0.565,0.42
		c-0.164,0.28-0.245,0.62-0.245,1.02v2.76h0.43v0.18h-2.84v-0.18h0.55v-4.4h-0.55V15.076z"/>
	<path d="M62.226,17.486h0.29v-0.77c0-0.633-0.035-1.058-0.105-1.275c-0.07-0.216-0.205-0.325-0.405-0.325
		c-0.12,0-0.228,0.032-0.325,0.095s-0.145,0.15-0.145,0.26c0,0.11,0.02,0.222,0.06,0.335h0.25c0.053,0.14,0.08,0.308,0.08,0.505
		s-0.083,0.367-0.25,0.51c-0.167,0.144-0.377,0.215-0.63,0.215c-0.573,0-0.86-0.277-0.86-0.83c0-0.82,0.697-1.23,2.09-1.23
		c0.793,0,1.342,0.135,1.645,0.405s0.455,0.765,0.455,1.485v2.03c0,0.347,0.097,0.52,0.29,0.52c0.227,0,0.36-0.343,0.4-1.03
		l0.15,0.01c-0.027,0.586-0.137,0.99-0.33,1.21s-0.51,0.33-0.95,0.33c-0.8,0-1.26-0.247-1.38-0.74
		c-0.087,0.253-0.217,0.44-0.39,0.56s-0.427,0.18-0.76,0.18c-0.987,0-1.48-0.403-1.48-1.21c0-0.474,0.188-0.798,0.565-0.975
		C60.867,17.574,61.446,17.486,62.226,17.486z M61.88,19.386c0.037,0.1,0.107,0.15,0.21,0.15c0.103,0,0.2-0.085,0.29-0.255
		c0.09-0.17,0.135-0.405,0.135-0.705v-0.93h-0.07c-0.414,0-0.62,0.303-0.62,0.91v0.16C61.826,19.063,61.844,19.286,61.88,19.386z"/>
	<path d="M64.916,12.336h2.45v7.32h0.56v0.18h-2.97v-0.18h0.55v-7.14h-0.59V12.336z"/>
</g>
<g>
	<path d="M42.095,22.836l0.1,2.51h-0.19c-0.293-0.886-0.553-1.491-0.78-1.815c-0.227-0.323-0.554-0.485-0.98-0.485h-0.12v6.58h0.85
		v0.21h-3.65v-0.21h0.85v-6.58h-0.13c-0.427,0-0.757,0.168-0.99,0.505c-0.233,0.337-0.49,0.935-0.77,1.795h-0.19l0.1-2.51H42.095z"
		/>
	<path d="M42.766,22.336h2.41v3.66c0.107-0.307,0.27-0.553,0.49-0.74c0.22-0.187,0.553-0.28,1-0.28c1.033,0,1.55,0.557,1.55,1.67
		v3.01h0.56v0.18h-2.83v-0.18h0.41v-3.25c0-0.4-0.027-0.658-0.08-0.775s-0.15-0.175-0.29-0.175c-0.213,0-0.401,0.14-0.565,0.42
		c-0.163,0.28-0.245,0.62-0.245,1.02v2.76h0.43v0.18h-2.84v-0.18h0.55v-7.14h-0.55V22.336z"/>
	<path d="M48.985,25.076h2.45v4.58h0.56v0.18h-2.97v-0.18h0.55v-4.4h-0.59V25.076z M50.495,24.386c-0.353,0-0.605-0.09-0.755-0.27
		c-0.15-0.18-0.225-0.403-0.225-0.67c0-0.267,0.082-0.486,0.245-0.66c0.163-0.173,0.412-0.26,0.745-0.26
		c0.333,0,0.586,0.079,0.76,0.235c0.173,0.157,0.26,0.38,0.26,0.67c0,0.29-0.083,0.521-0.25,0.695
		C51.108,24.299,50.849,24.386,50.495,24.386z"/>
	<path d="M52.315,25.076h2.41v0.92c0.107-0.307,0.27-0.553,0.49-0.74c0.22-0.187,0.553-0.28,1-0.28c1.033,0,1.55,0.557,1.55,1.67
		v3.01h0.56v0.18h-2.83v-0.18h0.41v-3.25c0-0.4-0.027-0.658-0.08-0.775s-0.15-0.175-0.29-0.175c-0.213,0-0.401,0.14-0.565,0.42
		c-0.164,0.28-0.245,0.62-0.245,1.02v2.76h0.43v0.18h-2.84v-0.18h0.55v-4.4h-0.55V25.076z"/>
	<path d="M62.565,24.556l0.28-0.17c0.04-0.207-0.04-0.31-0.24-0.31c-0.287,0-0.43,0.22-0.43,0.66c0,0.173,0.023,0.374,0.07,0.6
		c0.506,0.34,0.76,0.775,0.76,1.305c0,0.53-0.183,0.941-0.55,1.235s-0.863,0.44-1.49,0.44c-0.26,0-0.53-0.026-0.81-0.08
		c-0.293,0.187-0.44,0.327-0.44,0.42c0,0.094,0.213,0.14,0.64,0.14h1.02c1.513,0,2.27,0.543,2.27,1.63
		c0,0.587-0.229,1.052-0.685,1.395s-1.168,0.515-2.135,0.515c-1.647,0-2.47-0.357-2.47-1.07c0-0.387,0.257-0.654,0.77-0.8l0.6,0.27
		c-0.053,0.193-0.08,0.376-0.08,0.55c0,0.573,0.427,0.86,1.28,0.86c0.52,0,0.92-0.097,1.2-0.29c0.28-0.193,0.42-0.434,0.42-0.72
		s-0.085-0.478-0.255-0.575s-0.508-0.145-1.015-0.145h-0.97c-0.54,0-0.927-0.09-1.16-0.27s-0.35-0.402-0.35-0.665
		s0.083-0.483,0.25-0.66c0.167-0.176,0.463-0.395,0.89-0.655c-0.773-0.22-1.16-0.727-1.16-1.52c0-0.5,0.18-0.903,0.54-1.21
		c0.36-0.307,0.9-0.46,1.62-0.46c0.433,0,0.803,0.083,1.11,0.25c-0.04-0.18-0.06-0.343-0.06-0.49c0-0.373,0.1-0.643,0.3-0.81
		c0.2-0.167,0.423-0.25,0.67-0.25s0.445,0.065,0.595,0.195c0.15,0.13,0.225,0.308,0.225,0.535c0,0.227-0.06,0.395-0.18,0.505
		c-0.12,0.11-0.265,0.165-0.435,0.165s-0.31-0.045-0.42-0.135C62.63,24.851,62.572,24.723,62.565,24.556z M60.445,26.426v0.54
		c0,0.447,0.038,0.75,0.115,0.91s0.193,0.24,0.35,0.24c0.156,0,0.27-0.078,0.34-0.235c0.07-0.156,0.105-0.478,0.105-0.965v-0.49
		c0-0.52-0.033-0.861-0.1-1.025c-0.066-0.163-0.178-0.245-0.335-0.245s-0.275,0.085-0.355,0.255
		C60.485,25.581,60.445,25.919,60.445,26.426z"/>
	<path d="M64.005,29.936v-1.79h0.12c0.173,0.58,0.406,0.987,0.7,1.22c0.293,0.234,0.66,0.35,1.1,0.35c0.68,0,1.02-0.216,1.02-0.65
		c0-0.187-0.083-0.327-0.25-0.42c-0.26-0.146-0.593-0.26-1-0.34c-0.454-0.12-0.833-0.28-1.14-0.48c-0.367-0.24-0.55-0.62-0.55-1.14
		s0.16-0.935,0.48-1.245s0.747-0.465,1.28-0.465c0.327,0,0.664,0.077,1.01,0.23c0.126,0.053,0.223,0.08,0.29,0.08
		c0.066,0,0.123-0.023,0.17-0.07c0.046-0.046,0.103-0.133,0.17-0.26h0.11v1.53h-0.12c-0.34-0.867-0.867-1.3-1.58-1.3
		c-0.313,0-0.547,0.055-0.7,0.165c-0.153,0.11-0.23,0.249-0.23,0.415c0,0.1,0.023,0.178,0.07,0.235
		c0.047,0.057,0.083,0.099,0.11,0.125c0.026,0.027,0.07,0.055,0.13,0.085s0.11,0.053,0.15,0.07c0.04,0.017,0.102,0.039,0.185,0.065
		c0.083,0.027,0.145,0.043,0.185,0.05c0.453,0.113,0.78,0.211,0.98,0.295s0.39,0.185,0.57,0.305c0.367,0.253,0.55,0.662,0.55,1.225
		c0,0.563-0.167,0.99-0.5,1.28c-0.333,0.29-0.79,0.435-1.37,0.435c-0.414,0-0.813-0.097-1.2-0.29c-0.08-0.053-0.143-0.08-0.19-0.08
		c-0.146,0-0.29,0.124-0.43,0.37H64.005z"/>
</g>
<g>
	<path d="M15.399,21.801l-1.969,0.387c-0.211,0.773-0.316,1.484-0.316,2.133c0,0.508-0.02,0.943-0.059,1.307
		s-0.195,0.787-0.469,1.271c0.57,0.508,1.004,0.885,1.301,1.131s0.633,0.482,1.008,0.709s0.703,0.34,0.984,0.34
		c0.148,0,0.297-0.039,0.445-0.117s0.254-0.199,0.316-0.363h0.141c-0.047,0.539-0.264,0.953-0.65,1.242s-0.834,0.434-1.342,0.434
		c-0.586,0-1.107-0.111-1.564-0.334s-1.076-0.662-1.857-1.318c-0.57,0.5-1.219,0.9-1.945,1.201s-1.594,0.451-2.602,0.451
		c-1.195,0-2.217-0.156-3.064-0.469s-1.521-0.715-2.021-1.207s-0.855-1.01-1.066-1.553s-0.316-1.049-0.316-1.518
		c0-1.172,0.33-2.125,0.99-2.859s1.607-1.453,2.842-2.156c-0.25-0.453-0.451-0.838-0.604-1.154s-0.277-0.682-0.375-1.096
		S3.06,17.375,3.06,16.844c0-0.836,0.186-1.563,0.557-2.18s0.875-1.086,1.512-1.406s1.33-0.48,2.08-0.48
		c1.055,0,1.871,0.275,2.449,0.826s0.867,1.244,0.867,2.08c0,1.023-0.369,1.859-1.107,2.508s-1.729,1.27-2.971,1.863
		c0.594,0.867,1.229,1.686,1.904,2.455s1.561,1.709,2.654,2.818v-1.055c0-0.781-0.105-1.477-0.316-2.086l-1.395-0.41V21.66h6.105
		V21.801z M4.36,20.875l-0.082-0.152c-0.977,0.594-1.721,1.16-2.232,1.699s-0.855,1.057-1.031,1.553s-0.264,0.998-0.264,1.506
		c0,0.82,0.24,1.568,0.721,2.244s1.172,1.223,2.074,1.641s1.916,0.643,3.041,0.674v-0.141c-1-0.07-1.881-0.34-2.643-0.809
		s-1.352-1.059-1.77-1.77s-0.627-1.438-0.627-2.18c0-0.461,0.084-0.938,0.252-1.43s0.469-0.99,0.902-1.494S3.688,21.266,4.36,20.875
		z M4.595,21.203c-0.445,0.266-0.854,0.691-1.225,1.277s-0.557,1.297-0.557,2.133c0,0.68,0.115,1.32,0.346,1.922
		s0.543,1.123,0.938,1.564s0.844,0.783,1.348,1.025s1.014,0.363,1.529,0.363c0.617,0,1.229-0.164,1.834-0.492
		s1.104-0.773,1.494-1.336c-1.25-1.211-2.326-2.303-3.229-3.275S5.345,22.352,4.595,21.203z M11.333,22.117v3
		c0,0.797-0.094,1.398-0.281,1.805c-2.313-2.18-4.09-4.154-5.332-5.924s-1.863-3.357-1.863-4.764c0-0.453,0.055-0.842,0.164-1.166
		s0.254-0.623,0.434-0.896H4.302c-0.297,0.297-0.529,0.686-0.697,1.166s-0.252,1.006-0.252,1.576c0,0.953,0.316,2.01,0.949,3.17
		s1.486,2.35,2.561,3.568s2.365,2.539,3.873,3.961c-0.602,0.969-1.496,1.641-2.684,2.016l0.023,0.117
		c0.656-0.164,1.223-0.381,1.699-0.65s0.934-0.635,1.371-1.096c0.82,0.695,1.48,1.205,1.98,1.529s1.047,0.486,1.641,0.486
		c0.242,0,0.539-0.066,0.891-0.199v-0.117h-0.305c-0.375,0-0.748-0.088-1.119-0.264s-0.734-0.406-1.09-0.691
		s-0.877-0.732-1.564-1.342c0.367-0.695,0.551-1.535,0.551-2.52v-2.766H11.333z M6.728,13.551c-0.547,0-1.02,0.203-1.418,0.609
		s-0.598,0.973-0.598,1.699c0,0.508,0.121,1.08,0.363,1.717s0.555,1.232,0.938,1.787c0.531-0.305,0.98-0.67,1.348-1.096
		s0.646-0.879,0.838-1.359s0.287-0.959,0.287-1.436c0-0.43-0.08-0.791-0.24-1.084s-0.371-0.506-0.633-0.639
		S7.056,13.551,6.728,13.551z M7.642,13.363v0.094c0.227,0.086,0.438,0.23,0.633,0.434s0.348,0.443,0.457,0.721
		s0.164,0.572,0.164,0.885c0,0.75-0.248,1.504-0.744,2.262s-1.17,1.379-2.021,1.863l0.07,0.117c1.008-0.516,1.816-1.133,2.426-1.852
		s0.914-1.445,0.914-2.18c0-0.641-0.195-1.162-0.586-1.564S8.126,13.48,7.642,13.363z"/>
</g>
</svg>
