<?xml version="1.0" encoding="utf-8"?>
<!-- Generator: Adobe Illustrator 16.0.0, SVG Export Plug-In . SVG Version: 6.00 Build 0)  -->
<!DOCTYPE svg PUBLIC "-//W3C//DTD SVG 1.1//EN" "http://www.w3.org/Graphics/SVG/1.1/DTD/svg11.dtd">
<svg version="1.1" id="Layer_1" xmlns="http://www.w3.org/2000/svg" xmlns:xlink="http://www.w3.org/1999/xlink" x="0px" y="0px"
	 width="534.276px" height="554.041px" viewBox="50.79 47.511 534.276 554.041"
	 enable-background="new 50.79 47.511 534.276 554.041" xml:space="preserve">
<path fill="#19660E" d="M317.383,75.531C173.412,75.531,56.7,192.243,56.7,336.215c0,143.971,116.712,260.684,260.683,260.684
	c143.973,0,260.684-116.713,260.684-260.684C578.066,192.243,461.355,75.531,317.383,75.531z M321.518,465.714
	c-68.918,0-124.787-55.869-124.787-124.786c0-68.918,55.869-124.787,124.787-124.787c68.917,0,124.786,55.869,124.786,124.787
	C446.304,409.845,390.435,465.714,321.518,465.714z"/>
<circle fill="#FFE000" cx="522.677" cy="283.867" r="14.812"/>
<circle fill="#FFE000" cx="487.635" cy="392.414" r="14.812"/>
<circle fill="#FFE000" cx="394.472" cy="515.491" r="14.812"/>
<circle fill="#FFE000" cx="114.985" cy="309.719" r="14.812"/>
<circle fill="#FFE000" cx="161.139" cy="439.423" r="14.812"/>
<circle fill="#FFE000" cx="243.438" cy="519.688" r="14.812"/>
<g>
	<rect x="295.731" y="82.389" fill="#911A1A" width="37.607" height="26.496"/>
	<polygon fill="#911A1A" points="403.423,128.543 403.423,76.406 402.149,76.406 402.149,58.457 365.964,58.457 365.964,76.406 
		347.013,76.406 347.013,112.303 288.893,112.303 288.893,65.295 264.107,65.295 264.107,58.457 233.337,58.457 233.337,128.543 
		264.107,128.543 264.107,124.269 281.201,124.269 281.201,159.312 273.571,159.312 273.571,186.663 310.261,186.663 
		310.261,168.714 329.064,168.714 329.064,186.663 372.654,186.663 372.654,159.312 360.688,159.312 360.688,128.543 	"/>
</g>
<path d="M233.025,49.443c7.412-3.299,15.827-1.787,23.385,0.202c13.458,3.831,26.126,9.963,38.391,16.622
	c1.971,0.985,3.721,2.35,5.178,4.015c12.001-0.03,24.008,0.006,36.01-0.024c1.512-0.012,2.992,0.337,4.449,0.729
	c10.654-6.567,21.658-12.65,33.299-17.289c6.701-2.57,13.739-4.92,21.004-4.621c4.418,0.116,8.855,1.854,11.891,5.116
	c3.012,3.317,4.749,7.558,5.979,11.806c2.154,7.454,2.968,15.214,3.458,22.932c38.936,15.269,74.254,39.761,101.935,71.132
	c27.993,31.438,48.391,69.609,58.771,110.411c12.999,50.423,10.729,104.756-6.892,153.789
	c-5.997,17.907-14.608,34.811-24.253,51.005c-3.758,5.648-7.626,11.236-11.519,16.793c-5.343,7.926-11.701,15.092-17.992,22.259
	c-36.188,39.89-84.72,68.464-137.247,80.453c-15.215,3.801-30.894,5.288-46.519,6.182c-19.235,1.609-38.538-0.27-57.613-2.772
	c-20.386-3.012-40.245-9.003-59.309-16.763c-8.66-3.072-16.622-7.718-24.707-12.014c-6.31-3.445-12.577-6.965-18.727-10.674
	c-3.782-2.246-7.185-5.049-10.759-7.589c-7.662-5.716-15.245-11.566-22.411-17.895c-8.183-7.729-16.151-15.698-23.636-24.106
	c-10.734-12.613-20.386-26.157-28.788-40.429c-5.851-10.882-11.194-22.038-16.255-33.306c-2.375-5.109-3.868-10.551-5.679-15.862
	c-3.342-10.533-6.567-21.139-8.525-32.026c-2.026-8.274-2.699-16.775-3.525-25.227c-0.71-7.944-1.34-15.894-1.628-23.862
	c0.067-22.62,2.576-45.282,8.213-67.21c8.574-33.832,23.868-65.961,44.866-93.856c19.468-26.053,43.807-48.464,71.329-65.79
	c13.69-8.409,27.84-16.316,43.011-21.72c0.422-9.149,1.451-18.391,4.333-27.13C224.359,57.295,227.59,51.866,233.025,49.443
	 M241.079,65.894c-1.818,3.751-2.65,7.87-3.311,11.958c-1.414,9.076-1.652,18.299-1.297,27.467
	c0.416,6.916,0.967,13.954,3.384,20.502c4.198-0.189,8.25-1.426,12.179-2.84c11.267-4.229,21.892-10.006,32.155-16.236
	c0.832-0.312,0.973-1.169,1.206-1.916c-3.323-0.085-6.64,0.074-9.958-0.055c-3.996-0.141-7.57-3.292-8.366-7.185
	c-1.243-4.994,2.576-10.483,7.699-11.016c3.464-0.239,6.946-0.031,10.422-0.098c-0.006-1.511,0-3.029,0.006-4.541
	c-9.321-5.079-18.923-9.694-28.966-13.158C251.349,67.16,246.281,65.661,241.079,65.894 M382.604,69.945
	c-11.212,4.167-21.635,10.116-31.91,16.169c3.042-0.006,6.114-0.282,9.137,0.159c4.205,0.833,7.437,4.981,7.148,9.278
	c0,4.486-3.861,8.55-8.342,8.794c-4.266,0.178-8.543-0.098-12.814,0.135c0.722,1.2,1.995,1.812,3.176,2.46
	c9.578,5.232,19.431,10.03,29.713,13.721c5,1.708,10.153,3.372,15.502,3.299c1.885-4.461,2.582-9.29,3.108-14.07
	c0.918-9.26,0.796-18.617-0.263-27.858c-0.624-5.012-1.438-10.074-3.445-14.749C389.832,67.595,386.153,68.635,382.604,69.945
	 M303.558,88.604c-0.019,5.771-0.019,11.536-0.006,17.308c8.079,0,16.157,0.006,24.235-0.006c0-5.777-0.012-11.554,0.006-17.338
	C319.715,88.647,311.637,88.58,303.558,88.604 M412.194,128.293c-1.487,4.167-3.758,8.305-7.497,10.838
	c-4.657,3.244-10.624,3.543-16.083,2.895c-8.439-1.114-16.512-4.058-24.34-7.308c3.728,4.419,7.216,9.033,10.606,13.709
	c4.944,7.167,10.165,14.461,12.552,22.944c1.646,5.618-0.153,11.891-4.211,16.034c-5.428,5.606-12.876,8.721-20.275,10.796
	c-9.058,2.344-18.91,3.427-27.95,0.428c-5.918-1.952-10.605-6.726-12.76-12.534c-1.83,5.214-6.163,9.235-11.236,11.261
	c-8.042,3.244-16.971,3.225-25.465,2.313c-8.592-1.193-17.57-3.384-24.309-9.162c-3.947-3.256-5.998-8.507-5.533-13.58
	c0.612-7.577,3.782-14.633,6.91-21.463c3.746-7.791,7.913-15.38,12.521-22.693c-5.899,3.036-11.977,5.753-18.244,7.95
	c-6.634,2.215-13.703,4.198-20.747,3.023c-5.074-0.827-9.67-4.052-12.038-8.636c-4.113-7.87-5.006-16.916-5.771-25.624
	c-5.667,2.687-11.34,5.354-16.946,8.158c-41.922,21.995-77.191,56.372-100.411,97.608c8.14,19.97,21.157,38.079,38.146,51.445
	c9.786,7.938,20.833,14.339,32.638,18.77c7.344,2.968,15.025,5.122,22.852,6.396c3.593-8.525,7.142-17.197,12.564-24.756
	c2.613-3.678,5.117-7.448,7.932-10.985c3.819-4.902,8.287-9.241,12.583-13.721c2.699-2.846,5.814-5.239,8.874-7.681
	c9.792-7.583,20.478-14.045,31.947-18.764c11.652-5.288,24.284-7.876,36.885-9.706c23.489-2.638,47.638,0.985,69.358,10.312
	c7.038,3.372,14.168,6.677,20.6,11.139c8.801,5.856,17.197,12.484,24.131,20.508c4.395,4.902,8.66,9.927,12.675,15.147
	c28.36-2.925,55.252-16.671,74.848-37.277c7.405-7.656,13.495-16.451,18.99-25.539c-26.591-40.594-65.423-72.987-110.129-91.879
	C415.315,115.3,414.403,121.983,412.194,128.293 M299.458,129.395c-7.136,9.682-13.274,20.08-18.746,30.784
	c-2.692,5.526-5.41,11.132-6.695,17.185c7.858,4.149,17.148,5.074,25.881,4.113c2.013-0.508,5.343-0.539,5.557-3.231
	c0.888-4.461,0.839-9.039,0.771-13.562c-0.521-13.654-2.62-27.204-5.398-40.563C300.976,125.979,300.572,127.871,299.458,129.395
	 M332.5,126.775c0.085,12.987,0.881,25.998,3.041,38.813c0.918,4.762,1.817,9.615,3.868,14.04c1.064,2.387,4.155,2.197,6.353,2.423
	c8.299,0.062,16.928-1.903,23.764-6.781c-3.2-7.717-8.286-14.449-13.226-21.12C348.938,144.547,341.11,135.288,332.5,126.775
	 M536.596,218.208c-5.11,7.699-10.894,14.933-17.289,21.604c1.304,1.059,2.699,2.118,3.494,3.642
	c1.763,3.066,1.047,6.738,1.12,10.104c3.396,0.104,6.695,1.065,9.865,2.234c9.211,3.837,15.845,12.876,17.081,22.735
	c0.931,5.447-0.135,11.078-2.271,16.12c-4.002,9.033-12.968,15.716-22.84,16.659c-12.943,1.652-26.199-6.946-30.086-19.364
	c-3.097-8.959-1.487-19.406,4.271-26.952c1.983-2.65,4.554-4.773,7.105-6.854c-0.997-1.854-1.523-3.904-1.499-6.01
	c-12.718,10.08-27.161,18.103-42.62,23.115c-6.744,2.43-13.739,4.155-20.82,5.257c2.553,4.419,4.113,9.296,5.809,14.082
	c1.891,5.625,3.8,11.249,5.189,17.02c0.691,3.427,1.188,6.885,1.72,10.336c11.499,8.776,24.7,15.239,38.525,19.425
	c11.065,3.427,22.681,4.455,34.205,4.877c7.374-0.208,14.742-0.881,22.044-1.971c5.813-0.949,11.426-2.785,17.111-4.271
	C567.36,297.719,556.987,255.271,536.596,218.208 M309.391,224.487c-21.726,1.958-42.791,10.276-60.025,23.642
	c-8.936,6.5-16.182,14.976-22.932,23.642c-5.802,7.326-9.596,15.931-13.685,24.26c-2.509,5.625-4.143,11.585-5.722,17.521
	c-2.136,7.907-2.644,16.132-3.036,24.278c-0.098,11.622,1.157,23.354,4.621,34.486c5.374,19.119,16.096,36.592,30.19,50.521
	c7.497,6.922,15.508,13.434,24.547,18.25c6.212,3.415,12.571,6.671,19.37,8.758c10.171,3.452,20.838,5.019,31.493,6.016
	c6.242,0.833,12.516-0.092,18.739-0.594c9.884-0.893,19.658-3.017,29.003-6.364c10.667-4.101,20.686-9.811,29.841-16.641
	c6.182-4.088,11.219-9.584,16.396-14.822c5.331-6.444,10.19-13.293,14.578-20.416c5.998-10.796,10.288-22.528,12.81-34.615
	c1.536-10.141,2.852-20.447,1.78-30.71c-0.281-1.646-1.095-3.176-1.138-4.859c0.636-8.079-2.259-15.838-4.676-23.409
	c-1.8-5.141-3.336-10.428-6.077-15.165c-3.703-6.781-7.313-13.709-12.485-19.511c-5.073-5.894-9.944-12.075-16.04-16.965
	c-7.289-6.236-15.331-11.622-24.003-15.734c-9.816-5.141-20.526-8.341-31.371-10.453
	C330.945,223.942,320.101,223.104,309.391,224.487 M73.36,291.305c-2.87,15.349-4.106,30.967-4.241,46.573
	c0.3,8.207,0.992,16.396,1.738,24.578c0.6,5.851,1.089,11.726,2.179,17.516c2.087-0.673,4.339-1.236,6.5-0.52
	c7.136,2.276,14.002,5.459,21.371,6.958c8.653,2.099,17.589,2.417,26.432,3.066c14.957-0.422,30.11-2.326,44.027-8.115
	c6.432-2.148,12.264-5.624,18.342-8.562c-3.984-15.312-4.915-31.384-3.281-47.106c0.453-5.447,1.328-10.857,2.656-16.157
	c-21.457-4.137-41.958-13.348-59.211-26.775c-0.104,0.477-0.306,1.438-0.404,1.916c5.998,3.488,9.896,9.572,12.393,15.894
	c1.138,3.329,1.083,6.903,1.285,10.379c-0.282,8.446-4.682,16.494-11.2,21.775c-4.865,3.617-10.906,5.465-16.916,5.863
	c-6.934-0.19-14.009-2.516-19.174-7.265c-5.844-5.104-9.266-12.687-9.743-20.379c0.41-4.529,0.336-9.407,2.735-13.446
	c1.867-3.415,3.58-7.148,6.897-9.413c4.382-3.972,9.969-6.554,15.802-7.454c0.055-2.46-0.288-5.067,0.752-7.381
	c0.594-1.407,1.665-2.521,2.663-3.647c-9.762-9.877-17.926-21.279-24.492-33.501C82.7,253.777,76.886,272.321,73.36,291.305
	 M520.481,272.144c-5.808,1.279-9.449,7.98-7.546,13.586c1.457,5.698,8.445,9.131,13.801,6.548
	c5.796-2.479,7.821-10.386,4.443-15.569C529.135,272.988,524.484,271.489,520.481,272.144 M112.902,299.078
	c-2.956,0.924-5.826,2.778-7.154,5.667c-2.399,4.517-1.071,10.679,3.201,13.599c4.186,2.987,10.741,2.087,13.684-2.222
	c3.464-4.363,2.424-11.169-1.511-14.884C118.82,299.518,115.796,298.208,112.902,299.078 M456.007,344.837
	c-0.808,9.939-1.615,19.994-4.485,29.59c-3.721,13.77-9.333,27.161-17.448,38.936c-5.429,7.864-10.942,15.783-18.048,22.246
	c-6.499,6.971-14.431,12.332-22.302,17.62c7.289,5.734,15.515,10.079,23.697,14.363c6.315,2.797,12.815,5.214,19.504,6.971
	c9.364,2.644,19.132,3.354,28.801,3.941c8.501-0.104,17.026-0.704,25.41-2.143c9.683-1.854,19.101-5.012,28.03-9.161
	c3.91-1.665,7.582-4.725,12.123-3.807c9.144-15.355,16.959-31.555,22.442-48.587c6.267-17.901,10.049-36.604,11.928-55.459
	c-11.774,3.531-24.082,4.651-36.304,5.208c-4.492,0.141-8.96-0.318-13.434-0.637c-6.077-0.471-12.16-1.12-18.103-2.521
	c-0.062,1.279-0.129,2.57-0.208,3.855c8.788,3.574,15.802,11.549,17.741,20.912c2.075,9.033-0.452,18.997-6.695,25.869
	c-5.936,6.935-15.508,10.282-24.498,9.247c-4.266-0.287-8.194-2.245-11.897-4.247c-7.19-4.528-12.087-12.521-13.041-20.948
	c-1.004-7.724,1.321-15.784,6.175-21.855c2.265-2.864,5.281-4.969,8.243-7.05c1.744-1.242,3.874-1.683,5.894-2.289
	c-0.134-2.938-0.098-5.881-0.085-8.825C471.332,353.019,463.455,349.262,456.007,344.837 M485.555,382.218
	c-3.372,0.79-6.457,3.195-7.54,6.555c-1.939,4.945,0.38,11.407,5.435,13.421c3.844,1.885,8.904,0.783,11.641-2.503
	c3.653-4.082,3.464-10.979-0.496-14.786C492.354,382.457,488.737,381.496,485.555,382.218 M165.509,402.738
	c0,2.497,0.006,4.994,0,7.49c9.872,1.42,18.666,8.489,22.148,17.828c5.471,12.57,0.3,28.752-11.591,35.674
	c-7.497,4.645-17.32,5.618-25.417,1.958c-2.454-1.132-5.049-2.13-7.056-3.996c-2.98-2.761-5.827-5.777-7.724-9.4
	c-1.854-3.801-2.693-8.018-3.091-12.203c-0.52-4.646,1.175-9.119,2.699-13.415c1.107-3.385,3.825-5.809,6.102-8.409
	c1.726-2.02,3.959-3.482,6.188-4.872c-0.618-2.271-0.673-4.626-0.588-6.958c-6.817,0.6-13.635,1.347-20.478,1.396
	c-10.159-0.74-20.416-1.175-30.343-3.642c-6.622-1.328-12.864-3.953-19.217-6.163c2.118,7.497,4.406,14.951,6.91,22.338
	c1.419,4.786,3.617,9.278,5.686,13.801c3.255,7.068,6.683,14.058,10.232,20.979c3.213,6.579,7.417,12.602,11.396,18.728
	c4.474-0.661,8.256,2.111,12.289,3.482c4.633,1.609,9.271,3.268,14.051,4.406c9.376,2.479,19.113,2.949,28.746,3.562
	c7.76-0.392,15.551-0.869,23.219-2.185c21.812-4.192,42.351-14.56,58.832-29.432c-6.457-4.045-12.411-8.824-18.188-13.77
	c-7.479-6.408-13.776-14.039-19.688-21.885c-6.138-8.568-11.108-17.956-15.251-27.638
	C185.993,395.78,175.858,399.709,165.509,402.738 M158.135,428.785c-2.246,0.759-3.85,2.631-5.288,4.431
	c-2.154,3.274-2.173,7.625-0.404,11.064c1.732,2.779,4.651,4.792,7.907,5.245c4.058,0.41,8.231-1.915,9.963-5.618
	c2.289-4.468,0.949-10.275-2.858-13.47C164.891,428.356,161.256,427.708,158.135,428.785 M257.982,469.765
	c-4.18,3.58-8.568,6.909-13.115,10c3.789,2.405,4.89,7.007,4.4,11.224c12.889,2.411,22.521,15.043,22.387,27.993
	c0.245,5.716-1.793,11.236-4.596,16.132c-4.584,7.18-12.571,12.137-21.078,12.896c-12.484,1.536-25.404-6.609-29.48-18.495
	c-3.47-8.837-1.977-19.18,3.231-27.014c3.097-3.702,6.598-7.362,11.169-9.186c0.019-1.757,0.019-3.507,0.037-5.258
	c-11.512,5.809-23.721,10.27-36.365,12.828c-8.354,1.683-16.879,2.074-25.349,2.729c-4.413,0.238-8.807-0.324-13.201-0.612
	c-8.611-0.588-17.204-1.781-25.515-4.168c6.781,7.222,13.69,14.327,20.937,21.09c7.46,6.493,15.312,12.534,23.299,18.366
	c7.038,5.489,15.043,9.517,22.773,13.917c8.194,4.363,16.224,9.155,25,12.282c17.766,7.234,36.273,12.828,55.282,15.594
	c17.864,2.308,35.943,4.125,53.948,2.528c10.195-0.521,20.373-1.549,30.465-3.085c8.997-1.604,17.853-3.88,26.659-6.285
	c37.607-11.114,72.528-31.218,100.931-58.263c8.574-7.925,16.206-16.769,23.66-25.729c-13.128,4.823-27.087,6.922-41.022,7.412
	c-7.986,0.532-15.979-0.343-23.911-1.212c-12.142-1.408-23.966-4.921-35.195-9.664c-0.509,1.965-1.457,3.782-2.736,5.361
	c2.662,2.124,5.056,4.59,7.062,7.344c2.675,3.715,3.703,8.274,4.773,12.645c0.612,5.569-0.257,11.334-2.668,16.407
	c-2.754,6.053-7.84,10.925-13.795,13.795c-6.235,2.252-13.273,3.684-19.712,1.383c-4.438-1.572-8.996-3.519-12.167-7.13
	c-4.106-4.217-7.105-9.584-8.065-15.422c-1.781-9.707,1.578-20.393,9.155-26.861c5.159-5.184,12.613-7.509,19.816-7.423
	c-0.062-3.164-0.03-6.328-0.037-9.492c-6.475-4.168-12.778-8.611-18.586-13.672c-17.729,8.322-37.473,11.229-56.892,11.823
	c-18.629-0.905-37.43-4.112-54.48-11.952C263.246,465.505,260.485,467.549,257.982,469.765 M391.337,504.648
	c-2.222,0.496-3.904,2.154-5.318,3.837c-3.978,5.007-2.142,13.507,3.868,16.017c3.042,1.695,6.836,1.021,9.73-0.643
	c6.176-3.887,5.968-14.315-0.263-18.023C396.912,504.605,394.03,503.749,391.337,504.648 M240.767,509
	c-3.74,1.211-7.069,4.18-7.607,8.237c-1.542,6.475,4.345,13.482,11.065,12.527c6.953-0.495,11.273-9.094,8.023-15.104
	C250.504,510.334,245.308,507.348,240.767,509z"/>
</svg>
